<mxfile host="app.diagrams.net" agent="Mozilla/5.0 (Macintosh; Intel Mac OS X 10_15_7) AppleWebKit/537.36 (KHTML, like Gecko) Chrome/136.0.0.0 Safari/537.36" version="27.0.9">
  <diagram id="7ZVbUvn4PinL3UD14QV4" name="Page-1">
    <mxGraphModel dx="2524" dy="1092" grid="1" gridSize="10" guides="1" tooltips="1" connect="1" arrows="1" fold="1" page="1" pageScale="1" pageWidth="827" pageHeight="1169" math="0" shadow="0">
      <root>
        <mxCell id="0" />
        <mxCell id="1" parent="0" />
        <mxCell id="nHxKNkCj7YVvxqpv2u66-16" style="edgeStyle=orthogonalEdgeStyle;rounded=0;orthogonalLoop=1;jettySize=auto;html=1;strokeColor=none;startArrow=classic;startFill=1;" parent="1" source="nHxKNkCj7YVvxqpv2u66-2" target="nHxKNkCj7YVvxqpv2u66-5" edge="1">
          <mxGeometry relative="1" as="geometry" />
        </mxCell>
        <mxCell id="C51nBvF7YCFntMv2sxhs-6" style="edgeStyle=orthogonalEdgeStyle;rounded=0;orthogonalLoop=1;jettySize=auto;html=1;" edge="1" parent="1" source="nHxKNkCj7YVvxqpv2u66-38" target="Ua6lyJo_9DxEzh0UiRZ6-38">
          <mxGeometry relative="1" as="geometry">
            <Array as="points">
              <mxPoint x="760" y="487" />
            </Array>
          </mxGeometry>
        </mxCell>
        <mxCell id="nHxKNkCj7YVvxqpv2u66-38" value="" style="sketch=0;pointerEvents=1;shadow=0;dashed=0;html=1;strokeColor=none;fillColor=#505050;labelPosition=center;verticalLabelPosition=bottom;verticalAlign=top;outlineConnect=0;align=center;shape=mxgraph.office.devices.cell_phone_iphone_standalone;" parent="1" vertex="1">
          <mxGeometry x="720" y="617" width="84.52" height="142" as="geometry" />
        </mxCell>
        <mxCell id="nHxKNkCj7YVvxqpv2u66-43" value="Admin" style="text;html=1;strokeColor=none;fillColor=none;align=center;verticalAlign=middle;whiteSpace=wrap;rounded=0;" parent="1" vertex="1">
          <mxGeometry x="88.50999999999999" y="759" width="60" height="30" as="geometry" />
        </mxCell>
        <mxCell id="nHxKNkCj7YVvxqpv2u66-50" value="Basic Auth" style="text;html=1;strokeColor=none;fillColor=none;align=center;verticalAlign=middle;whiteSpace=wrap;rounded=0;" parent="1" vertex="1">
          <mxGeometry x="-20" y="488.5" width="60" height="30" as="geometry" />
        </mxCell>
        <mxCell id="Ua6lyJo_9DxEzh0UiRZ6-19" style="edgeStyle=orthogonalEdgeStyle;rounded=0;orthogonalLoop=1;jettySize=auto;html=1;entryX=0.5;entryY=1;entryDx=0;entryDy=0;" parent="1" source="Ua6lyJo_9DxEzh0UiRZ6-1" target="nHxKNkCj7YVvxqpv2u66-61" edge="1">
          <mxGeometry relative="1" as="geometry" />
        </mxCell>
        <mxCell id="Ua6lyJo_9DxEzh0UiRZ6-30" style="edgeStyle=orthogonalEdgeStyle;rounded=0;orthogonalLoop=1;jettySize=auto;html=1;" parent="1" source="Ua6lyJo_9DxEzh0UiRZ6-1" target="Ua6lyJo_9DxEzh0UiRZ6-27" edge="1">
          <mxGeometry relative="1" as="geometry">
            <Array as="points">
              <mxPoint x="140" y="640" />
              <mxPoint x="521" y="640" />
            </Array>
          </mxGeometry>
        </mxCell>
        <mxCell id="C51nBvF7YCFntMv2sxhs-4" style="edgeStyle=orthogonalEdgeStyle;rounded=0;orthogonalLoop=1;jettySize=auto;html=1;" edge="1" parent="1" source="Ua6lyJo_9DxEzh0UiRZ6-1" target="Ua6lyJo_9DxEzh0UiRZ6-37">
          <mxGeometry relative="1" as="geometry" />
        </mxCell>
        <mxCell id="Ua6lyJo_9DxEzh0UiRZ6-1" value="" style="shape=mxgraph.signs.tech.computer;html=1;pointerEvents=1;fillColor=#000000;strokeColor=none;verticalLabelPosition=bottom;verticalAlign=top;align=center;" parent="1" vertex="1">
          <mxGeometry x="80.25" y="680" width="79" height="79" as="geometry" />
        </mxCell>
        <mxCell id="Ua6lyJo_9DxEzh0UiRZ6-5" value="" style="group" parent="1" vertex="1" connectable="0">
          <mxGeometry x="70.25" y="440" width="99" height="127" as="geometry" />
        </mxCell>
        <mxCell id="nHxKNkCj7YVvxqpv2u66-61" value="Admin&amp;nbsp;&lt;div&gt;CloudFront&lt;/div&gt;" style="text;html=1;strokeColor=none;fillColor=none;align=center;verticalAlign=middle;whiteSpace=wrap;rounded=0;" parent="Ua6lyJo_9DxEzh0UiRZ6-5" vertex="1">
          <mxGeometry y="97" width="99" height="30" as="geometry" />
        </mxCell>
        <mxCell id="Ua6lyJo_9DxEzh0UiRZ6-2" value="" style="outlineConnect=0;dashed=0;verticalLabelPosition=bottom;verticalAlign=top;align=center;html=1;shape=mxgraph.aws3.cloudfront;fillColor=#F58536;gradientColor=none;" parent="Ua6lyJo_9DxEzh0UiRZ6-5" vertex="1">
          <mxGeometry x="10.5" width="76.5" height="93" as="geometry" />
        </mxCell>
        <mxCell id="Ua6lyJo_9DxEzh0UiRZ6-6" value="" style="group" parent="1" vertex="1" connectable="0">
          <mxGeometry x="-49.999999999999986" y="200" width="99" height="123" as="geometry" />
        </mxCell>
        <mxCell id="Ua6lyJo_9DxEzh0UiRZ6-3" value="" style="outlineConnect=0;dashed=0;verticalLabelPosition=bottom;verticalAlign=top;align=center;html=1;shape=mxgraph.aws3.s3;fillColor=#E05243;gradientColor=none;" parent="Ua6lyJo_9DxEzh0UiRZ6-6" vertex="1">
          <mxGeometry x="12.48999999999999" width="74.03" height="90" as="geometry" />
        </mxCell>
        <mxCell id="Ua6lyJo_9DxEzh0UiRZ6-4" value="Admin Front&amp;nbsp;&lt;div&gt;S3 Bucket&lt;/div&gt;" style="text;html=1;strokeColor=none;fillColor=none;align=center;verticalAlign=middle;whiteSpace=wrap;rounded=0;" parent="Ua6lyJo_9DxEzh0UiRZ6-6" vertex="1">
          <mxGeometry y="93" width="99" height="30" as="geometry" />
        </mxCell>
        <mxCell id="Ua6lyJo_9DxEzh0UiRZ6-7" value="" style="group" parent="1" vertex="1" connectable="0">
          <mxGeometry x="202" y="200" width="74.02999999999997" height="123" as="geometry" />
        </mxCell>
        <mxCell id="nHxKNkCj7YVvxqpv2u66-2" value="" style="outlineConnect=0;dashed=0;verticalLabelPosition=bottom;verticalAlign=top;align=center;html=1;shape=mxgraph.aws3.lambda;fillColor=#F58534;gradientColor=none;" parent="Ua6lyJo_9DxEzh0UiRZ6-7" vertex="1">
          <mxGeometry x="1" width="74.03" height="90" as="geometry" />
        </mxCell>
        <mxCell id="nHxKNkCj7YVvxqpv2u66-42" value="Admin API Lambda" style="text;html=1;strokeColor=none;fillColor=none;align=center;verticalAlign=middle;whiteSpace=wrap;rounded=0;" parent="Ua6lyJo_9DxEzh0UiRZ6-7" vertex="1">
          <mxGeometry x="7.009999999999991" y="93" width="60" height="30" as="geometry" />
        </mxCell>
        <mxCell id="Ua6lyJo_9DxEzh0UiRZ6-13" value="" style="group" parent="1" vertex="1" connectable="0">
          <mxGeometry x="-120" y="442" width="80" height="123" as="geometry" />
        </mxCell>
        <mxCell id="Ua6lyJo_9DxEzh0UiRZ6-10" value="" style="outlineConnect=0;dashed=0;verticalLabelPosition=bottom;verticalAlign=top;align=center;html=1;shape=mxgraph.aws3.lambda;fillColor=#F58534;gradientColor=none;" parent="Ua6lyJo_9DxEzh0UiRZ6-13" vertex="1">
          <mxGeometry x="4" width="74.03" height="90" as="geometry" />
        </mxCell>
        <mxCell id="Ua6lyJo_9DxEzh0UiRZ6-11" value="Basic Auth Lambda Edge" style="text;html=1;strokeColor=none;fillColor=none;align=center;verticalAlign=middle;whiteSpace=wrap;rounded=0;" parent="Ua6lyJo_9DxEzh0UiRZ6-13" vertex="1">
          <mxGeometry y="93" width="80" height="30" as="geometry" />
        </mxCell>
        <mxCell id="Ua6lyJo_9DxEzh0UiRZ6-16" style="edgeStyle=orthogonalEdgeStyle;rounded=0;orthogonalLoop=1;jettySize=auto;html=1;" parent="1" source="Ua6lyJo_9DxEzh0UiRZ6-10" target="Ua6lyJo_9DxEzh0UiRZ6-2" edge="1">
          <mxGeometry relative="1" as="geometry" />
        </mxCell>
        <mxCell id="Ua6lyJo_9DxEzh0UiRZ6-20" style="edgeStyle=orthogonalEdgeStyle;rounded=0;orthogonalLoop=1;jettySize=auto;html=1;" parent="1" source="Ua6lyJo_9DxEzh0UiRZ6-2" target="Ua6lyJo_9DxEzh0UiRZ6-3" edge="1">
          <mxGeometry relative="1" as="geometry">
            <Array as="points">
              <mxPoint x="100" y="245" />
            </Array>
          </mxGeometry>
        </mxCell>
        <mxCell id="Ua6lyJo_9DxEzh0UiRZ6-22" style="edgeStyle=orthogonalEdgeStyle;rounded=0;orthogonalLoop=1;jettySize=auto;html=1;" parent="1" source="Ua6lyJo_9DxEzh0UiRZ6-2" target="nHxKNkCj7YVvxqpv2u66-2" edge="1">
          <mxGeometry relative="1" as="geometry">
            <Array as="points">
              <mxPoint x="140" y="245" />
            </Array>
          </mxGeometry>
        </mxCell>
        <mxCell id="Ua6lyJo_9DxEzh0UiRZ6-23" value="/*" style="text;html=1;strokeColor=none;fillColor=none;align=center;verticalAlign=middle;whiteSpace=wrap;rounded=0;" parent="1" vertex="1">
          <mxGeometry x="39.999999999999986" y="210" width="60" height="30" as="geometry" />
        </mxCell>
        <mxCell id="Ua6lyJo_9DxEzh0UiRZ6-24" value="/api/*" style="text;html=1;strokeColor=none;fillColor=none;align=center;verticalAlign=middle;whiteSpace=wrap;rounded=0;" parent="1" vertex="1">
          <mxGeometry x="142" y="210" width="60" height="30" as="geometry" />
        </mxCell>
        <mxCell id="Ua6lyJo_9DxEzh0UiRZ6-25" value="" style="group" parent="1" vertex="1" connectable="0">
          <mxGeometry x="471" y="200.5" width="99" height="123" as="geometry" />
        </mxCell>
        <mxCell id="Ua6lyJo_9DxEzh0UiRZ6-26" value="" style="outlineConnect=0;dashed=0;verticalLabelPosition=bottom;verticalAlign=top;align=center;html=1;shape=mxgraph.aws3.s3;fillColor=#E05243;gradientColor=none;" parent="Ua6lyJo_9DxEzh0UiRZ6-25" vertex="1">
          <mxGeometry x="12.48999999999999" y="-1" width="74.03" height="90" as="geometry" />
        </mxCell>
        <mxCell id="Ua6lyJo_9DxEzh0UiRZ6-27" value="Resource&amp;nbsp;&lt;div&gt;S3 Bucket&lt;/div&gt;" style="text;html=1;strokeColor=none;fillColor=none;align=center;verticalAlign=middle;whiteSpace=wrap;rounded=0;" parent="Ua6lyJo_9DxEzh0UiRZ6-25" vertex="1">
          <mxGeometry y="93" width="99" height="30" as="geometry" />
        </mxCell>
        <mxCell id="Ua6lyJo_9DxEzh0UiRZ6-28" style="edgeStyle=orthogonalEdgeStyle;rounded=0;orthogonalLoop=1;jettySize=auto;html=1;" parent="1" source="nHxKNkCj7YVvxqpv2u66-2" target="Ua6lyJo_9DxEzh0UiRZ6-26" edge="1">
          <mxGeometry relative="1" as="geometry" />
        </mxCell>
        <mxCell id="Ua6lyJo_9DxEzh0UiRZ6-29" value="Upload JSON" style="text;html=1;strokeColor=none;fillColor=none;align=center;verticalAlign=middle;whiteSpace=wrap;rounded=0;" parent="1" vertex="1">
          <mxGeometry x="334" y="250" width="80" height="30" as="geometry" />
        </mxCell>
        <mxCell id="Ua6lyJo_9DxEzh0UiRZ6-31" value="Upload Image" style="text;html=1;strokeColor=none;fillColor=none;align=center;verticalAlign=middle;whiteSpace=wrap;rounded=0;" parent="1" vertex="1">
          <mxGeometry x="270" y="610" width="80" height="30" as="geometry" />
        </mxCell>
        <mxCell id="Ua6lyJo_9DxEzh0UiRZ6-33" value="" style="group" parent="1" vertex="1" connectable="0">
          <mxGeometry x="710.48" y="200" width="99" height="123" as="geometry" />
        </mxCell>
        <mxCell id="Ua6lyJo_9DxEzh0UiRZ6-34" value="" style="outlineConnect=0;dashed=0;verticalLabelPosition=bottom;verticalAlign=top;align=center;html=1;shape=mxgraph.aws3.s3;fillColor=#E05243;gradientColor=none;" parent="Ua6lyJo_9DxEzh0UiRZ6-33" vertex="1">
          <mxGeometry x="12.48999999999999" y="-1" width="74.03" height="90" as="geometry" />
        </mxCell>
        <mxCell id="Ua6lyJo_9DxEzh0UiRZ6-35" value="Front&amp;nbsp;&lt;div&gt;S3 Bucket&lt;/div&gt;" style="text;html=1;strokeColor=none;fillColor=none;align=center;verticalAlign=middle;whiteSpace=wrap;rounded=0;" parent="Ua6lyJo_9DxEzh0UiRZ6-33" vertex="1">
          <mxGeometry y="93" width="99" height="30" as="geometry" />
        </mxCell>
        <mxCell id="Ua6lyJo_9DxEzh0UiRZ6-36" value="" style="group" parent="1" vertex="1" connectable="0">
          <mxGeometry x="590" y="440" width="99" height="127" as="geometry" />
        </mxCell>
        <mxCell id="Ua6lyJo_9DxEzh0UiRZ6-37" value="Admin&amp;nbsp;&lt;div&gt;CloudFront&lt;/div&gt;" style="text;html=1;strokeColor=none;fillColor=none;align=center;verticalAlign=middle;whiteSpace=wrap;rounded=0;" parent="Ua6lyJo_9DxEzh0UiRZ6-36" vertex="1">
          <mxGeometry y="97" width="99" height="30" as="geometry" />
        </mxCell>
        <mxCell id="Ua6lyJo_9DxEzh0UiRZ6-38" value="" style="outlineConnect=0;dashed=0;verticalLabelPosition=bottom;verticalAlign=top;align=center;html=1;shape=mxgraph.aws3.cloudfront;fillColor=#F58536;gradientColor=none;" parent="Ua6lyJo_9DxEzh0UiRZ6-36" vertex="1">
          <mxGeometry x="10.5" width="76.5" height="93" as="geometry" />
        </mxCell>
        <mxCell id="Ua6lyJo_9DxEzh0UiRZ6-40" style="edgeStyle=orthogonalEdgeStyle;rounded=0;orthogonalLoop=1;jettySize=auto;html=1;entryX=1;entryY=0.5;entryDx=0;entryDy=0;entryPerimeter=0;" parent="1" source="Ua6lyJo_9DxEzh0UiRZ6-38" target="Ua6lyJo_9DxEzh0UiRZ6-26" edge="1">
          <mxGeometry relative="1" as="geometry">
            <Array as="points">
              <mxPoint x="620" y="245" />
              <mxPoint x="579" y="245" />
            </Array>
          </mxGeometry>
        </mxCell>
        <mxCell id="Ua6lyJo_9DxEzh0UiRZ6-41" style="edgeStyle=orthogonalEdgeStyle;rounded=0;orthogonalLoop=1;jettySize=auto;html=1;" parent="1" source="Ua6lyJo_9DxEzh0UiRZ6-38" target="Ua6lyJo_9DxEzh0UiRZ6-34" edge="1">
          <mxGeometry relative="1" as="geometry">
            <Array as="points">
              <mxPoint x="660" y="244" />
            </Array>
          </mxGeometry>
        </mxCell>
        <mxCell id="Ua6lyJo_9DxEzh0UiRZ6-43" value="/*" style="text;html=1;strokeColor=none;fillColor=none;align=center;verticalAlign=middle;whiteSpace=wrap;rounded=0;" parent="1" vertex="1">
          <mxGeometry x="660" y="210" width="60" height="30" as="geometry" />
        </mxCell>
        <mxCell id="C51nBvF7YCFntMv2sxhs-1" value="/resource/*" style="text;html=1;strokeColor=none;fillColor=none;align=center;verticalAlign=middle;whiteSpace=wrap;rounded=0;" vertex="1" parent="1">
          <mxGeometry x="560" y="210" width="70" height="30" as="geometry" />
        </mxCell>
        <mxCell id="C51nBvF7YCFntMv2sxhs-7" value="User" style="text;html=1;strokeColor=none;fillColor=none;align=center;verticalAlign=middle;whiteSpace=wrap;rounded=0;" vertex="1" parent="1">
          <mxGeometry x="729.98" y="760" width="60" height="30" as="geometry" />
        </mxCell>
        <mxCell id="C51nBvF7YCFntMv2sxhs-9" value="" style="group" vertex="1" connectable="0" parent="1">
          <mxGeometry x="200.03" width="79.99999999999997" height="108" as="geometry" />
        </mxCell>
        <mxCell id="nHxKNkCj7YVvxqpv2u66-5" value="" style="sketch=0;points=[[0,0,0],[0.25,0,0],[0.5,0,0],[0.75,0,0],[1,0,0],[0,1,0],[0.25,1,0],[0.5,1,0],[0.75,1,0],[1,1,0],[0,0.25,0],[0,0.5,0],[0,0.75,0],[1,0.25,0],[1,0.5,0],[1,0.75,0]];outlineConnect=0;fontColor=#232F3E;gradientColor=#4D72F3;gradientDirection=north;fillColor=#3334B9;strokeColor=#ffffff;dashed=0;verticalLabelPosition=bottom;verticalAlign=top;align=center;html=1;fontSize=12;fontStyle=0;aspect=fixed;shape=mxgraph.aws4.resourceIcon;resIcon=mxgraph.aws4.dynamodb;" parent="C51nBvF7YCFntMv2sxhs-9" vertex="1">
          <mxGeometry x="1" width="78" height="78" as="geometry" />
        </mxCell>
        <mxCell id="C51nBvF7YCFntMv2sxhs-8" value="Reaction DB" style="text;html=1;strokeColor=none;fillColor=none;align=center;verticalAlign=middle;whiteSpace=wrap;rounded=0;" vertex="1" parent="C51nBvF7YCFntMv2sxhs-9">
          <mxGeometry y="78" width="80" height="30" as="geometry" />
        </mxCell>
        <mxCell id="C51nBvF7YCFntMv2sxhs-10" style="edgeStyle=orthogonalEdgeStyle;rounded=0;orthogonalLoop=1;jettySize=auto;html=1;entryX=0.5;entryY=0;entryDx=0;entryDy=0;entryPerimeter=0;" edge="1" parent="1" source="C51nBvF7YCFntMv2sxhs-8" target="nHxKNkCj7YVvxqpv2u66-2">
          <mxGeometry relative="1" as="geometry" />
        </mxCell>
      </root>
    </mxGraphModel>
  </diagram>
</mxfile>
